<svg width="28" height="28" viewBox="0 0 28 28" fill="none" xmlns="http://www.w3.org/2000/svg">
<path d="M3.62225 20.7535H7.24747C7.24747 22.7596 8.8656 24.3768 10.8727 24.3768C12.8798 24.3768 14.4979 22.7596 14.4979 20.7535H18.1231C18.1231 24.7501 14.8869 28.0002 10.8727 28.0002C6.85851 27.9846 3.62225 24.7501 3.62225 20.7535Z" fill="#6366F1"/>
<path d="M18.1009 13.5004V20.7472H14.4757L14.4757 13.5004H18.1009Z" fill="#6366F1"/>
<path d="M7.2359 13.5109L7.2359 20.7576H3.61071L3.61071 13.5109H7.2359Z" fill="#6366F1"/>
<path d="M10.8569 0.972784L9.05203 4.11409C7.32499 3.11884 5.10007 3.70977 4.1043 5.43592C3.10854 7.16207 3.69977 9.38582 5.42681 10.3811L3.62197 13.5224C0.152344 11.5163 -1.03013 7.09977 0.976964 3.63193C2.9685 0.164077 7.40278 -1.03328 10.8569 0.972784Z" fill="#6366F1"/>
<path d="M9.86326 17.1542L3.58438 13.5309L5.39697 10.3931L11.6759 14.0164L9.86326 17.1542Z" fill="#6366F1"/>
<path d="M15.2942 7.745L9.01529 4.12164L10.8279 0.983841L17.1068 4.6072L15.2942 7.745Z" fill="#6366F1"/>
<path d="M17.143 4.59608L18.9478 7.73739C20.6749 6.74213 22.8998 7.33306 23.8955 9.05921C24.8913 10.7854 24.3001 13.0091 22.573 14.0044L24.3779 17.1457C27.8475 15.1396 29.03 10.7231 27.0229 7.25522C25.0313 3.77182 20.597 2.59001 17.143 4.59608Z" fill="#6366F1"/>
<path d="M18.0854 20.7853L16.2728 17.6474L22.6367 13.975L24.4493 17.1128L18.0854 20.7853Z" fill="#6366F1"/>
<path d="M12.6435 11.3888L10.8309 8.25099L17.3689 4.4781L19.1815 7.61594L12.6435 11.3888Z" fill="#6366F1"/>
</svg>
